name Walk5.mot
datacolumns 19
datarows 27
range 2.21000000 2.34000000
endheader

                time	   L_ground_force_vx	   L_ground_force_vy	   L_ground_force_vz	   L_ground_force_px	   L_ground_force_py	   L_ground_force_pz	   R_ground_force_vx	   R_ground_force_vy	   R_ground_force_vz	   R_ground_force_px	   R_ground_force_py	   R_ground_force_pz	   L_ground_torque_x	   L_ground_torque_y	   L_ground_torque_z	   R_ground_torque_x	   R_ground_torque_y	   R_ground_torque_z	
          2.21000000	         -0.14987838	        123.97545492	        -11.16975513	         -0.05875568	          0.00000000	         -0.00269300	          0.00000000	         -0.00000000	         -0.00000000	         -0.00000000	          0.00000000	         -0.00000000	          0.00000000	          0.21673075	          0.00000000	          0.00000000	         -0.00000000	          0.00000000	
          2.21500000	         -3.62935319	        172.31693835	        -16.75517513	         -0.12936130	          0.00000000	         -0.00719744	          0.00000000	         -0.00000000	         -0.00000000	         -0.00000000	          0.00000000	         -0.00000000	          0.00000000	          0.35201329	          0.00000000	          0.00000000	         -0.00000000	          0.00000000	
          2.22000000	         -8.71272910	        222.95082606	        -22.49806029	         -0.19141792	          0.00000000	         -0.01109433	          0.00000000	         -0.00000000	          0.00000000	          0.00000000	          0.00000000	          0.00000000	          0.00000000	          0.53168966	          0.00000000	          0.00000000	         -0.00000000	          0.00000000	
          2.22500000	        -15.57334427	        272.98236120	        -28.10376273	         -0.24294602	          0.00000000	         -0.01428162	         -0.00000000	         -0.00000000	          0.00000000	          0.00000000	          0.00000000	          0.00000000	          0.00000000	          0.75612458	          0.00000000	          0.00000000	          0.00000000	          0.00000000	
          2.23000000	        -24.07681164	        320.18572860	        -33.22789339	         -0.28352592	          0.00000000	         -0.01676898	         -0.00000000	          0.00000000	          0.00000000	          0.00000000	          0.00000000	          0.00000000	          0.00000000	          1.02230316	          0.00000000	          0.00000000	          0.00000000	          0.00000000	
          2.23500000	        -33.66596218	        363.41611960	        -37.56974555	         -0.31377375	          0.00000000	         -0.01863050	         -0.00000000	          0.00000000	          0.00000000	          0.00000000	          0.00000000	          0.00000000	          0.00000000	          1.32257742	          0.00000000	          0.00000000	          0.00000000	          0.00000000	
          2.24000000	        -43.48032947	        402.06026159	        -40.98346653	         -0.33492046	          0.00000000	         -0.01996579	         -0.00000000	          0.00000000	          0.00000000	          0.00000000	          0.00000000	          0.00000000	          0.00000000	          1.64339998	          0.00000000	          0.00000000	          0.00000000	          0.00000000	
          2.24500000	        -52.57230425	        435.72037583	        -43.43926893	         -0.34848726	          0.00000000	         -0.02088050	         -0.00000000	          0.00000000	          0.00000000	          0.00000000	          0.00000000	          0.00000000	          0.00000000	          1.96613802	          0.00000000	          0.00000000	          0.00000000	          0.00000000	
          2.25000000	        -60.15688452	        464.29292348	        -44.91023514	         -0.35605320	          0.00000000	         -0.02148046	         -0.00000000	          0.00000000	          0.00000000	          0.00000000	          0.00000000	          0.00000000	          0.00000000	          2.27010512	          0.00000000	          0.00000000	          0.00000000	          0.00000000	
          2.25500000	        -65.83751052	        487.96553813	        -45.31009898	         -0.35910178	          0.00000000	         -0.02187030	         -0.00000000	          0.00000000	          0.00000000	          0.00000000	          0.00000000	          0.00000000	          0.00000000	          2.53474580	          0.00000000	          0.00000000	          0.00000000	          0.00000000	
          2.26000000	        -69.66306374	        507.10829302	        -44.50723120	         -0.35892925	          0.00000000	         -0.02214878	         -0.00000000	          0.00000000	          0.00000000	          0.00000000	          0.00000000	          0.00000000	          0.00000000	          2.74149959	          0.00000000	          0.00000000	          0.00000000	          0.00000000	
          2.26500000	        -71.97636838	        522.27072577	        -42.37289255	         -0.35660547	          0.00000000	         -0.02240191	         -0.00000000	          0.00000000	          0.00000000	          0.00000000	          0.00000000	          0.00000000	          0.00000000	          2.87552989	          0.00000000	          0.00000000	          0.00000000	          0.00000000	
          2.27000000	        -73.19394685	        534.23485845	        -38.82671003	         -0.35296925	          0.00000000	         -0.02269823	         -0.00000000	          0.00000001	          0.00000000	          0.00000000	          0.00000000	          0.00000000	          0.00000000	          2.92656397	          0.00000000	          0.00000000	          0.00000000	          0.00000000	
          2.27500000	        -73.66380387	        543.97829895	        -33.86519255	         -0.34864489	          0.00000000	         -0.02308583	         -0.00000000	          0.00000001	          0.00000000	          0.00000000	          0.00000000	          0.00000000	          0.00000000	          2.89027566	          0.00000000	          0.00000000	          0.00000000	          0.00000000	
          2.28000000	        -73.64251177	        552.55550615	        -27.57405553	         -0.34406967	          0.00000000	         -0.02359258	         -0.00000000	          0.00000001	          0.00000000	          0.00000000	          0.00000000	          0.00000000	          0.00000000	          2.76907750	          0.00000000	          0.00000000	          0.00000000	          0.00000000	
          2.28500000	        -73.34751963	        560.95989378	        -20.12815722	         -0.33952274	          0.00000000	         -0.02422715	         -0.00000000	          0.00000001	          0.00000000	          0.00000000	          0.00000000	          0.00000000	          0.00000000	          2.57219049	          0.00000000	          0.00000000	          0.00000000	          0.00000000	
          2.29000000	        -73.01157486	        569.99619576	        -11.78380232	         -0.33515891	          0.00000000	         -0.02498072	         -0.00000000	          0.00000000	          0.00000000	         -0.00000000	          0.00000000	         -0.00000000	          0.00000000	          2.31574386	          0.00000000	          0.00000000	          0.00000000	          0.00000000	
          2.29500000	        -72.88796079	        580.18945941	         -2.86824791	         -0.33104668	          0.00000000	         -0.02583086	          0.00000000	          0.00000000	         -0.00000000	         -0.00000000	          0.00000000	         -0.00000000	          0.00000000	          2.02219740	          0.00000000	          0.00000000	         -0.00000000	          0.00000000	
          2.30000000	        -73.20497276	        591.74875166	          6.23201380	         -0.32720362	          0.00000000	         -0.02674425	          0.00000000	         -0.00000000	         -0.00000000	         -0.00000000	          0.00000000	         -0.00000000	          0.00000000	          1.71960568	          0.00000000	          0.00000000	         -0.00000000	          0.00000000	
          2.30500000	        -74.09973794	        604.57639312	         15.08111709	         -0.32363051	          0.00000000	         -0.02767766	          0.00000000	         -0.00000001	         -0.00000000	         -0.00000000	          0.00000000	         -0.00000000	          0.00000000	          1.44038501	          0.00000000	          0.00000000	         -0.00000000	          0.00000000	
          2.31000000	        -75.55794861	        618.33790317	         23.21975911	         -0.32033247	          0.00000000	         -0.02858264	          0.00000000	         -0.00000002	         -0.00000000	         -0.00000000	          0.00000000	         -0.00000000	          0.00000000	          1.21646911	          0.00000000	          0.00000000	         -0.00000000	          0.00000000	
          2.31500000	        -77.39643884	        632.66278027	         30.23879557	         -0.31731714	          0.00000000	         -0.02941586	          0.00000000	         -0.00000003	         -0.00000000	         -0.00000000	          0.00000000	         -0.00000000	          0.00000000	          1.07053155	          0.00000000	          0.00000000	         -0.00000000	          0.00000000	
          2.32000000	        -79.34590814	        647.36054017	         35.87029626	         -0.31458843	          0.00000000	         -0.03014484	          0.00000001	         -0.00000005	         -0.00000000	         -0.00000000	          0.00000000	         -0.00000000	          0.00000000	          1.00862564	          0.00000000	          0.00000000	         -0.00000000	          0.00000000	
          2.32500000	        -81.19266767	        662.45894216	         40.02196267	         -0.31214267	          0.00000000	         -0.03074823	          0.00000001	         -0.00000006	         -0.00000001	         -0.00000000	          0.00000000	         -0.00000000	          0.00000000	          1.02002054	          0.00000000	          0.00000000	         -0.00000000	          0.00000000	
          2.33000000	        -82.83989581	        678.12979986	         42.74608569	         -0.30996451	          0.00000000	         -0.03121656	          0.00000001	         -0.00000008	         -0.00000001	         -0.00000000	          0.00000000	         -0.00000000	          0.00000000	          1.08405982	          0.00000000	          0.00000000	         -0.00000000	          0.00000000	
          2.33500000	        -84.27052113	        694.62076850	         44.19027430	         -0.30802894	          0.00000000	         -0.03155098	          0.00000001	         -0.00000010	         -0.00000001	         -0.00000000	          0.00000000	         -0.00000000	          0.00000000	          1.17875184	          0.00000000	          0.00000000	         -0.00000000	          0.00000000	
          2.34000000	        -85.49895037	        712.17141348	         44.55338235	         -0.30630653	          0.00000000	         -0.03176186	          0.00000001	         -0.00000012	         -0.00000001	         -0.00000000	          0.00000000	         -0.00000000	          0.00000000	          1.28641544	          0.00000000	          0.00000000	         -0.00000000	          0.00000000	
